# positions (v)
v -0.5 -0.5  0.5   # 1  front 0
v  0.5 -0.5  0.5   # 2  front 1
v  0.5  0.5  0.5   # 3  front 2
v -0.5  0.5  0.5   # 4  front 3

v  0.5 -0.5 -0.5   # 5  back  0
v -0.5 -0.5 -0.5   # 6  back  1
v -0.5  0.5 -0.5   # 7  back  2
v  0.5  0.5 -0.5   # 8  back  3

v -0.5 -0.5 -0.5   # 9  left  0
v -0.5 -0.5  0.5   # 10 left  1
v -0.5  0.5  0.5   # 11 left  2
v -0.5  0.5 -0.5   # 12 left  3

v  0.5 -0.5  0.5   # 13 right 0
v  0.5 -0.5 -0.5   # 14 right 1
v  0.5  0.5 -0.5   # 15 right 2
v  0.5  0.5  0.5   # 16 right 3

v -0.5  0.5  0.5   # 17 top   0
v  0.5  0.5  0.5   # 18 top   1
v  0.5  0.5 -0.5   # 19 top   2
v -0.5  0.5 -0.5   # 20 top   3

v -0.5 -0.5 -0.5   # 21 bottom 0
v  0.5 -0.5 -0.5   # 22 bottom 1
v  0.5 -0.5  0.5   # 23 bottom 2
v -0.5 -0.5  0.5   # 24 bottom 3

# texcoords (vt) (one per vertex, matching your UVs)
vt 0 0   # 1
vt 1 0   # 2
vt 1 1   # 3
vt 0 1   # 4
vt 0 0   # 5
vt 1 0   # 6
vt 1 1   # 7
vt 0 1   # 8
vt 0 0   # 9
vt 1 0   # 10
vt 1 1   # 11
vt 0 1   # 12
vt 0 0   # 13
vt 1 0   # 14
vt 1 1   # 15
vt 0 1   # 16
vt 0 0   # 17
vt 1 0   # 18
vt 1 1   # 19
vt 0 1   # 20
vt 0 0   # 21
vt 1 0   # 22
vt 1 1   # 23
vt 0 1   # 24

# normals (vn) (one per vertex, matching your per-face normals)
vn  0  0  1   # 1  front
vn  0  0  1   # 2
vn  0  0  1   # 3
vn  0  0  1   # 4

vn  0  0 -1   # 5  back
vn  0  0 -1   # 6
vn  0  0 -1   # 7
vn  0  0 -1   # 8

vn -1  0  0   # 9  left
vn -1  0  0   # 10
vn -1  0  0   # 11
vn -1  0  0   # 12

vn  1  0  0   # 13 right
vn  1  0  0   # 14
vn  1  0  0   # 15
vn  1  0  0   # 16

vn  0  1  0   # 17 top
vn  0  1  0   # 18
vn  0  1  0   # 19
vn  0  1  0   # 20

vn  0 -1  0   # 21 bottom
vn  0 -1  0   # 22
vn  0 -1  0   # 23
vn  0 -1  0   # 24

# faces (f) using the same index order you generate:
# start, start+1, start+2  and  start, start+2, start+3

# Front face (z+): verts 1..4
f 1/1/1  2/2/2  3/3/3
f 1/1/1  3/3/3  4/4/4

# Back face (z-): verts 5..8
f 5/5/5  6/6/6  7/7/7
f 5/5/5  7/7/7  8/8/8

# Left face (x-): verts 9..12
f 9/9/9   10/10/10  11/11/11
f 9/9/9   11/11/11  12/12/12

# Right face (x+): verts 13..16
f 13/13/13  14/14/14  15/15/15
f 13/13/13  15/15/15  16/16/16

# Top face (y+): verts 17..20
f 17/17/17  18/18/18  19/19/19
f 17/17/17  19/19/19  20/20/20

# Bottom face (y-): verts 21..24
f 21/21/21  22/22/22  23/23/23
f 21/21/21  23/23/23  24/24/24
